<?xml version="1.0" encoding="UTF-8"?>
<svg xmlns="http://www.w3.org/2000/svg" style="display:none">
  <!--
    INERTUM SVG sprite. Use as: <svg class="ic"><use href="assets/icons.svg#patent"/></svg>
    Все иконки 24×24, stroke="currentColor", stroke-width="1.6", fill="none".
  -->
  <symbol id="patent" viewBox="0 0 24 24" fill="none" stroke="currentColor" stroke-width="1.6" stroke-linecap="round" stroke-linejoin="round">
    <path d="M12 2 L20 6 V12 C20 17 16.5 21 12 22 C7.5 21 4 17 4 12 V6 Z"/>
    <path d="M9 12 L11 14 L15 10"/>
  </symbol>
  <symbol id="document" viewBox="0 0 24 24" fill="none" stroke="currentColor" stroke-width="1.6" stroke-linecap="round" stroke-linejoin="round">
    <path d="M14 3 H6 C5 3 4 4 4 5 V19 C4 20 5 21 6 21 H18 C19 21 20 20 20 19 V9 Z"/>
    <path d="M14 3 V9 H20"/>
    <path d="M8 13 H16 M8 17 H13"/>
  </symbol>
  <symbol id="supplier" viewBox="0 0 24 24" fill="none" stroke="currentColor" stroke-width="1.6" stroke-linecap="round" stroke-linejoin="round">
    <path d="M3 7 L12 3 L21 7 V17 L12 21 L3 17 Z"/>
    <path d="M3 7 L12 11 L21 7"/>
    <path d="M12 11 V21"/>
  </symbol>
  <symbol id="prototype" viewBox="0 0 24 24" fill="none" stroke="currentColor" stroke-width="1.6" stroke-linecap="round" stroke-linejoin="round">
    <rect x="4" y="4" width="16" height="16" rx="2"/>
    <rect x="9" y="9" width="6" height="6"/>
    <path d="M9 4 V2 M15 4 V2 M9 22 V20 M15 22 V20 M4 9 H2 M4 15 H2 M22 9 H20 M22 15 H20"/>
  </symbol>
  <symbol id="finance" viewBox="0 0 24 24" fill="none" stroke="currentColor" stroke-width="1.6" stroke-linecap="round" stroke-linejoin="round">
    <path d="M3 17 L9 11 L13 15 L21 7"/>
    <path d="M16 7 H21 V12"/>
  </symbol>
  <symbol id="investors" viewBox="0 0 24 24" fill="none" stroke="currentColor" stroke-width="1.6" stroke-linecap="round" stroke-linejoin="round">
    <circle cx="9" cy="8" r="3"/>
    <path d="M3 20 C3 16 6 14 9 14 C12 14 15 16 15 20"/>
    <circle cx="17" cy="9" r="2.5"/>
    <path d="M14 18 C14 16 15.5 14.5 17 14.5 C19 14.5 21 16 21 18"/>
  </symbol>
  <symbol id="shield" viewBox="0 0 24 24" fill="none" stroke="currentColor" stroke-width="1.6" stroke-linecap="round" stroke-linejoin="round">
    <path d="M12 2 L20 5 V11 C20 17 16 21 12 22 C8 21 4 17 4 11 V5 Z"/>
  </symbol>
  <symbol id="molecule" viewBox="0 0 24 24" fill="none" stroke="currentColor" stroke-width="1.6" stroke-linecap="round" stroke-linejoin="round">
    <circle cx="12" cy="12" r="3"/>
    <circle cx="5" cy="5" r="2"/>
    <circle cx="19" cy="5" r="2"/>
    <circle cx="5" cy="19" r="2"/>
    <circle cx="19" cy="19" r="2"/>
    <path d="M9.7 9.7 L6.3 6.3 M14.3 9.7 L17.7 6.3 M9.7 14.3 L6.3 17.7 M14.3 14.3 L17.7 17.7"/>
  </symbol>
  <symbol id="capsule" viewBox="0 0 24 24" fill="none" stroke="currentColor" stroke-width="1.6" stroke-linecap="round" stroke-linejoin="round">
    <ellipse cx="12" cy="12" rx="9" ry="5"/>
    <path d="M3 12 V14 C3 16.7 7 19 12 19 C17 19 21 16.7 21 14 V12"/>
    <path d="M9 10 L12 13 L15 10"/>
  </symbol>
  <symbol id="leak" viewBox="0 0 24 24" fill="none" stroke="currentColor" stroke-width="1.6" stroke-linecap="round" stroke-linejoin="round">
    <path d="M12 3 V11 M12 3 L9 6 M12 3 L15 6"/>
    <circle cx="12" cy="16" r="5"/>
    <path d="M12 14 V17 M12 19 H12.01"/>
  </symbol>
  <symbol id="sensor" viewBox="0 0 24 24" fill="none" stroke="currentColor" stroke-width="1.6" stroke-linecap="round" stroke-linejoin="round">
    <circle cx="12" cy="12" r="3"/>
    <circle cx="12" cy="12" r="7"/>
    <path d="M12 2 V5 M12 19 V22 M2 12 H5 M19 12 H22"/>
  </symbol>
  <symbol id="archive" viewBox="0 0 24 24" fill="none" stroke="currentColor" stroke-width="1.6" stroke-linecap="round" stroke-linejoin="round">
    <rect x="3" y="3" width="18" height="5" rx="1"/>
    <path d="M5 8 V20 C5 20.5 5.5 21 6 21 H18 C18.5 21 19 20.5 19 20 V8"/>
    <path d="M10 12 H14"/>
  </symbol>
  <symbol id="globe" viewBox="0 0 24 24" fill="none" stroke="currentColor" stroke-width="1.6" stroke-linecap="round" stroke-linejoin="round">
    <circle cx="12" cy="12" r="9"/>
    <path d="M3 12 H21 M12 3 C14.5 6 16 9 16 12 C16 15 14.5 18 12 21 C9.5 18 8 15 8 12 C8 9 9.5 6 12 3 Z"/>
  </symbol>
  <symbol id="check" viewBox="0 0 24 24" fill="none" stroke="currentColor" stroke-width="2" stroke-linecap="round" stroke-linejoin="round">
    <path d="M5 12 L10 17 L20 7"/>
  </symbol>
  <symbol id="arrow-right" viewBox="0 0 24 24" fill="none" stroke="currentColor" stroke-width="1.6" stroke-linecap="round" stroke-linejoin="round">
    <path d="M5 12 H19 M13 6 L19 12 L13 18"/>
  </symbol>
  <symbol id="arrow-left" viewBox="0 0 24 24" fill="none" stroke="currentColor" stroke-width="1.6" stroke-linecap="round" stroke-linejoin="round">
    <path d="M19 12 H5 M11 6 L5 12 L11 18"/>
  </symbol>
  <symbol id="home" viewBox="0 0 24 24" fill="none" stroke="currentColor" stroke-width="1.6" stroke-linecap="round" stroke-linejoin="round">
    <path d="M3 11 L12 3 L21 11 V20 C21 20.5 20.5 21 20 21 H15 V14 H9 V21 H4 C3.5 21 3 20.5 3 20 Z"/>
  </symbol>
  <symbol id="top" viewBox="0 0 24 24" fill="none" stroke="currentColor" stroke-width="1.6" stroke-linecap="round" stroke-linejoin="round">
    <path d="M12 19 V5 M6 11 L12 5 L18 11"/>
    <line x1="5" y1="3" x2="19" y2="3"/>
  </symbol>
  <symbol id="sun" viewBox="0 0 24 24" fill="none" stroke="currentColor" stroke-width="1.6" stroke-linecap="round" stroke-linejoin="round">
    <circle cx="12" cy="12" r="4"/>
    <path d="M12 2 V4 M12 20 V22 M2 12 H4 M20 12 H22 M4.93 4.93 L6.34 6.34 M17.66 17.66 L19.07 19.07 M4.93 19.07 L6.34 17.66 M17.66 6.34 L19.07 4.93"/>
  </symbol>
  <symbol id="moon" viewBox="0 0 24 24" fill="none" stroke="currentColor" stroke-width="1.6" stroke-linecap="round" stroke-linejoin="round">
    <path d="M21 12.8 C20.5 17.4 16.7 21 12 21 C7 21 3 17 3 12 C3 7.3 6.6 3.5 11.2 3 C9.5 4.6 8.5 6.9 8.5 9.5 C8.5 14.2 12.3 18 17 18 C18.5 18 19.9 17.6 21 16.9 Z"/>
  </symbol>
  <symbol id="auto-theme" viewBox="0 0 24 24" fill="none" stroke="currentColor" stroke-width="1.6" stroke-linecap="round" stroke-linejoin="round">
    <circle cx="12" cy="12" r="9"/>
    <path d="M12 3 V21 M12 3 A9 9 0 0 1 12 21" fill="currentColor" stroke="none"/>
  </symbol>
  <symbol id="download" viewBox="0 0 24 24" fill="none" stroke="currentColor" stroke-width="1.6" stroke-linecap="round" stroke-linejoin="round">
    <path d="M12 3 V15 M6 11 L12 17 L18 11"/>
    <path d="M4 21 H20"/>
  </symbol>
  <symbol id="lock" viewBox="0 0 24 24" fill="none" stroke="currentColor" stroke-width="1.6" stroke-linecap="round" stroke-linejoin="round">
    <rect x="4" y="11" width="16" height="10" rx="2"/>
    <path d="M8 11 V7 C8 4.8 9.8 3 12 3 C14.2 3 16 4.8 16 7 V11"/>
    <circle cx="12" cy="16" r="1.2" fill="currentColor"/>
  </symbol>
  <symbol id="key" viewBox="0 0 24 24" fill="none" stroke="currentColor" stroke-width="1.6" stroke-linecap="round" stroke-linejoin="round">
    <circle cx="8" cy="14" r="4"/>
    <path d="M11 12 L21 2 M17 6 L20 9 M14 9 L17 12"/>
  </symbol>
  <symbol id="copy" viewBox="0 0 24 24" fill="none" stroke="currentColor" stroke-width="1.6" stroke-linecap="round" stroke-linejoin="round">
    <rect x="9" y="9" width="12" height="12" rx="2"/>
    <path d="M5 15 H4 C3 15 3 14 3 14 V4 C3 3 4 3 4 3 H14 C14 3 15 3 15 4 V5"/>
  </symbol>
  <symbol id="trash" viewBox="0 0 24 24" fill="none" stroke="currentColor" stroke-width="1.6" stroke-linecap="round" stroke-linejoin="round">
    <path d="M3 6 H21 M8 6 V4 C8 3 9 3 9 3 H15 C15 3 16 3 16 4 V6 M5 6 V20 C5 20.5 5.5 21 6 21 H18 C18.5 21 19 20.5 19 20 V6"/>
    <path d="M10 11 V17 M14 11 V17"/>
  </symbol>
  <symbol id="alert" viewBox="0 0 24 24" fill="none" stroke="currentColor" stroke-width="1.6" stroke-linecap="round" stroke-linejoin="round">
    <path d="M12 3 L22 21 H2 Z"/>
    <path d="M12 10 V14 M12 17 H12.01"/>
  </symbol>
  <symbol id="email" viewBox="0 0 24 24" fill="none" stroke="currentColor" stroke-width="1.6" stroke-linecap="round" stroke-linejoin="round">
    <rect x="3" y="5" width="18" height="14" rx="2"/>
    <path d="M3 7 L12 13 L21 7"/>
  </symbol>
</svg>
