<?xml version="1.0" encoding="UTF-8"?>
<svg xmlns="http://www.w3.org/2000/svg" viewBox="0 0 1280 640" font-family="Inter, Arial, sans-serif">
  <defs>
    <pattern id="grid-rd" patternUnits="userSpaceOnUse" width="40" height="40">
      <path d="M 40 0 L 0 0 0 40" fill="none" stroke="#5BC0EB" stroke-width="0.4" opacity="0.06"/>
    </pattern>
    <linearGradient id="revGrad" x1="0%" y1="0%" x2="100%" y2="0%">
      <stop offset="0%" stop-color="#5BC0EB" stop-opacity="0"/>
      <stop offset="20%" stop-color="#5BC0EB" stop-opacity="0.25"/>
      <stop offset="100%" stop-color="#5BC0EB" stop-opacity="0.55"/>
    </linearGradient>
  </defs>

  <rect width="1280" height="640" fill="#0a0b0d"/>
  <rect width="1280" height="640" fill="url(#grid-rd)"/>

  <!-- Header -->
  <text x="60" y="40" font-size="11" fill="#5BC0EB" letter-spacing="3" font-weight="500">ROADMAP · 2026 – 2030</text>
  <text x="60" y="80" font-size="32" fill="#F2F4F7" font-weight="600" letter-spacing="-0.5">От R&amp;D до $25M выручки за 5 лет</text>
  <text x="60" y="110" font-size="13" fill="#8a93a6">5 параллельных треков · Tech · Patent · Production · Sales · Fundraise · вехи по кварталам</text>
  <line x1="60" y1="130" x2="1220" y2="130" stroke="#2A2F3A" stroke-width="1"/>

  <!-- Year columns headers -->
  <g font-family="JetBrains Mono" font-size="14" fill="#5BC0EB" font-weight="500">
    <text x="180" y="160" text-anchor="middle">2026</text>
    <text x="400" y="160" text-anchor="middle">2027</text>
    <text x="620" y="160" text-anchor="middle">2028</text>
    <text x="840" y="160" text-anchor="middle">2029</text>
    <text x="1060" y="160" text-anchor="middle">2030</text>
  </g>

  <!-- Quarter sub-headers -->
  <g font-family="JetBrains Mono" font-size="9" fill="#8a93a6">
    <text x="125" y="178" text-anchor="middle">Q3</text>
    <text x="180" y="178" text-anchor="middle">Q4</text>
    <text x="235" y="178" text-anchor="middle">Q1</text>
    <text x="345" y="178" text-anchor="middle">Q2</text>
    <text x="455" y="178" text-anchor="middle">Q3</text>
    <text x="565" y="178" text-anchor="middle">Q4</text>
    <text x="675" y="178" text-anchor="middle">Q2</text>
    <text x="785" y="178" text-anchor="middle">Q4</text>
    <text x="895" y="178" text-anchor="middle">Q2</text>
    <text x="1005" y="178" text-anchor="middle">Q4</text>
    <text x="1115" y="178" text-anchor="middle">Q2</text>
  </g>

  <!-- Year separators -->
  <g stroke="#2A2F3A" stroke-width="0.5" stroke-dasharray="2,3">
    <line x1="290" y1="190" x2="290" y2="540"/>
    <line x1="510" y1="190" x2="510" y2="540"/>
    <line x1="730" y1="190" x2="730" y2="540"/>
    <line x1="950" y1="190" x2="950" y2="540"/>
  </g>

  <!-- Track labels -->
  <g font-family="JetBrains Mono" font-size="9" fill="#8a93a6" letter-spacing="2" text-anchor="end">
    <text x="55" y="225">PATENT</text>
    <text x="55" y="285">PRODUCTION</text>
    <text x="55" y="345">SALES</text>
    <text x="55" y="405">FUNDRAISE</text>
    <text x="55" y="465">REVENUE</text>
  </g>

  <!-- ============= PATENT TRACK ============= -->
  <g>
    <rect x="70" y="210" width="80" height="30" rx="3" fill="rgba(232,163,61,0.12)" stroke="#E8A33D" stroke-width="1"/>
    <text x="110" y="222" font-family="JetBrains Mono" font-size="8" fill="#E8A33D" text-anchor="middle">2026 Q3</text>
    <text x="110" y="234" font-size="10" fill="#F2F4F7" text-anchor="middle" font-weight="500">Подача РФ</text>

    <rect x="160" y="210" width="120" height="30" rx="3" fill="rgba(232,163,61,0.12)" stroke="#E8A33D" stroke-width="1"/>
    <text x="220" y="222" font-family="JetBrains Mono" font-size="8" fill="#E8A33D" text-anchor="middle">2026 Q4 — 2027 Q3</text>
    <text x="220" y="234" font-size="10" fill="#F2F4F7" text-anchor="middle" font-weight="500">Экспертиза + ЕАПО</text>

    <rect x="290" y="210" width="160" height="30" rx="3" fill="rgba(232,163,61,0.18)" stroke="#E8A33D" stroke-width="1.5"/>
    <text x="370" y="222" font-family="JetBrains Mono" font-size="8" fill="#E8A33D" text-anchor="middle">2027 Q3 — Q4</text>
    <text x="370" y="234" font-size="10" fill="#F2F4F7" text-anchor="middle" font-weight="600">★ Получение патента РФ</text>

    <rect x="510" y="210" width="200" height="30" rx="3" fill="rgba(232,163,61,0.12)" stroke="#E8A33D" stroke-width="1"/>
    <text x="610" y="222" font-family="JetBrains Mono" font-size="8" fill="#E8A33D" text-anchor="middle">2028</text>
    <text x="610" y="234" font-size="10" fill="#F2F4F7" text-anchor="middle" font-weight="500">PCT US/EU/CN/JP/UAE</text>

    <rect x="730" y="210" width="180" height="30" rx="3" fill="rgba(232,163,61,0.12)" stroke="#E8A33D" stroke-width="1"/>
    <text x="820" y="222" font-family="JetBrains Mono" font-size="8" fill="#E8A33D" text-anchor="middle">2029</text>
    <text x="820" y="234" font-size="10" fill="#F2F4F7" text-anchor="middle" font-weight="500">Патенты в 5+ странах</text>
  </g>

  <!-- ============= PRODUCTION TRACK ============= -->
  <g>
    <rect x="70" y="270" width="60" height="30" rx="3" fill="rgba(91,192,235,0.12)" stroke="#5BC0EB" stroke-width="1"/>
    <text x="100" y="282" font-family="JetBrains Mono" font-size="8" fill="#5BC0EB" text-anchor="middle">2026 Q3</text>
    <text x="100" y="294" font-size="10" fill="#F2F4F7" text-anchor="middle" font-weight="500">RFQ → закупка</text>

    <rect x="140" y="270" width="120" height="30" rx="3" fill="rgba(91,192,235,0.18)" stroke="#5BC0EB" stroke-width="1.5"/>
    <text x="200" y="282" font-family="JetBrains Mono" font-size="8" fill="#5BC0EB" text-anchor="middle">2026 Q4</text>
    <text x="200" y="294" font-size="10" fill="#F2F4F7" text-anchor="middle" font-weight="600">★ Прототипы № 1+2</text>

    <rect x="270" y="270" width="120" height="30" rx="3" fill="rgba(91,192,235,0.12)" stroke="#5BC0EB" stroke-width="1"/>
    <text x="330" y="282" font-family="JetBrains Mono" font-size="8" fill="#5BC0EB" text-anchor="middle">2027 Q1 — Q2</text>
    <text x="330" y="294" font-size="10" fill="#F2F4F7" text-anchor="middle" font-weight="500">6-мес испытания</text>

    <rect x="400" y="270" width="100" height="30" rx="3" fill="rgba(91,192,235,0.12)" stroke="#5BC0EB" stroke-width="1"/>
    <text x="450" y="282" font-family="JetBrains Mono" font-size="8" fill="#5BC0EB" text-anchor="middle">2027 Q3</text>
    <text x="450" y="294" font-size="10" fill="#F2F4F7" text-anchor="middle" font-weight="500">Прототип № 3 авто</text>

    <rect x="510" y="270" width="100" height="30" rx="3" fill="rgba(91,192,235,0.12)" stroke="#5BC0EB" stroke-width="1"/>
    <text x="560" y="282" font-family="JetBrains Mono" font-size="8" fill="#5BC0EB" text-anchor="middle">2028 Q1</text>
    <text x="560" y="294" font-size="10" fill="#F2F4F7" text-anchor="middle" font-weight="500">ГОСТ Р + ГОСТ В</text>

    <rect x="620" y="270" width="200" height="30" rx="3" fill="rgba(91,192,235,0.18)" stroke="#5BC0EB" stroke-width="1.5"/>
    <text x="720" y="282" font-family="JetBrains Mono" font-size="8" fill="#5BC0EB" text-anchor="middle">2028 Q2 — Q4</text>
    <text x="720" y="294" font-size="10" fill="#F2F4F7" text-anchor="middle" font-weight="600">★ Серия 500/год</text>

    <rect x="830" y="270" width="160" height="30" rx="3" fill="rgba(91,192,235,0.12)" stroke="#5BC0EB" stroke-width="1"/>
    <text x="910" y="282" font-family="JetBrains Mono" font-size="8" fill="#5BC0EB" text-anchor="middle">2029</text>
    <text x="910" y="294" font-size="10" fill="#F2F4F7" text-anchor="middle" font-weight="500">2-й цех (Каз/UAE)</text>

    <rect x="1000" y="270" width="180" height="30" rx="3" fill="rgba(91,192,235,0.12)" stroke="#5BC0EB" stroke-width="1"/>
    <text x="1090" y="282" font-family="JetBrains Mono" font-size="8" fill="#5BC0EB" text-anchor="middle">2030</text>
    <text x="1090" y="294" font-size="10" fill="#F2F4F7" text-anchor="middle" font-weight="500">2000+ капсул/год</text>
  </g>

  <!-- ============= SALES TRACK ============= -->
  <g>
    <rect x="240" y="330" width="60" height="30" rx="3" fill="rgba(63,185,132,0.12)" stroke="#3FB984" stroke-width="1"/>
    <text x="270" y="342" font-family="JetBrains Mono" font-size="8" fill="#3FB984" text-anchor="middle">2027 Q1</text>
    <text x="270" y="354" font-size="10" fill="#F2F4F7" text-anchor="middle" font-weight="500">1-я продажа</text>

    <rect x="310" y="330" width="120" height="30" rx="3" fill="rgba(63,185,132,0.18)" stroke="#3FB984" stroke-width="1.5"/>
    <text x="370" y="342" font-family="JetBrains Mono" font-size="8" fill="#3FB984" text-anchor="middle">2027 Q2 — Q4</text>
    <text x="370" y="354" font-size="10" fill="#F2F4F7" text-anchor="middle" font-weight="600">★ 5–10 пилотных контрактов</text>

    <rect x="440" y="330" width="80" height="30" rx="3" fill="rgba(63,185,132,0.12)" stroke="#3FB984" stroke-width="1"/>
    <text x="480" y="342" font-family="JetBrains Mono" font-size="8" fill="#3FB984" text-anchor="middle">2027 Q4</text>
    <text x="480" y="354" font-size="10" fill="#F2F4F7" text-anchor="middle" font-weight="500">$300–500k ARR</text>

    <rect x="530" y="330" width="180" height="30" rx="3" fill="rgba(63,185,132,0.12)" stroke="#3FB984" stroke-width="1"/>
    <text x="620" y="342" font-family="JetBrains Mono" font-size="8" fill="#3FB984" text-anchor="middle">2028</text>
    <text x="620" y="354" font-size="10" fill="#F2F4F7" text-anchor="middle" font-weight="500">Тендер Росрезерв</text>

    <rect x="720" y="330" width="180" height="30" rx="3" fill="rgba(63,185,132,0.12)" stroke="#3FB984" stroke-width="1"/>
    <text x="810" y="342" font-family="JetBrains Mono" font-size="8" fill="#3FB984" text-anchor="middle">2029</text>
    <text x="810" y="354" font-size="10" fill="#F2F4F7" text-anchor="middle" font-weight="500">MENA + CN премиум</text>

    <rect x="910" y="330" width="200" height="30" rx="3" fill="rgba(63,185,132,0.18)" stroke="#3FB984" stroke-width="1.5"/>
    <text x="1010" y="342" font-family="JetBrains Mono" font-size="8" fill="#3FB984" text-anchor="middle">2030</text>
    <text x="1010" y="354" font-size="10" fill="#F2F4F7" text-anchor="middle" font-weight="600">★ 1-2 лицензии (роялти 3-5%)</text>
  </g>

  <!-- ============= FUNDRAISE TRACK ============= -->
  <g>
    <rect x="70" y="390" width="120" height="30" rx="3" fill="rgba(91,192,235,0.18)" stroke="#82d3f3" stroke-width="1.5"/>
    <text x="130" y="402" font-family="JetBrains Mono" font-size="8" fill="#82d3f3" text-anchor="middle">2026 Q3</text>
    <text x="130" y="414" font-size="10" fill="#F2F4F7" text-anchor="middle" font-weight="600">★ Pre-seed $750k</text>

    <rect x="370" y="390" width="160" height="30" rx="3" fill="rgba(91,192,235,0.18)" stroke="#82d3f3" stroke-width="1.5"/>
    <text x="450" y="402" font-family="JetBrains Mono" font-size="8" fill="#82d3f3" text-anchor="middle">2027 Q3 — Q4</text>
    <text x="450" y="414" font-size="10" fill="#F2F4F7" text-anchor="middle" font-weight="600">★ Series A $3–5M</text>

    <rect x="640" y="390" width="180" height="30" rx="3" fill="rgba(91,192,235,0.12)" stroke="#82d3f3" stroke-width="1"/>
    <text x="730" y="402" font-family="JetBrains Mono" font-size="8" fill="#82d3f3" text-anchor="middle">2028 Q4</text>
    <text x="730" y="414" font-size="10" fill="#F2F4F7" text-anchor="middle" font-weight="500">Series B $10–15M</text>

    <rect x="900" y="390" width="220" height="30" rx="3" fill="rgba(91,192,235,0.10)" stroke="#82d3f3" stroke-width="1" stroke-dasharray="4,2"/>
    <text x="1010" y="402" font-family="JetBrains Mono" font-size="8" fill="#82d3f3" text-anchor="middle">2030+</text>
    <text x="1010" y="414" font-size="10" fill="#F2F4F7" text-anchor="middle" font-weight="500">Exit: M&amp;A $80–150M / IPO</text>
  </g>

  <!-- ============= REVENUE CURVE ============= -->
  <g transform="translate(60, 480)">
    <!-- Axis -->
    <line x1="10" y1="50" x2="1160" y2="50" stroke="#2A2F3A" stroke-width="0.5"/>

    <!-- Y axis ticks -->
    <g font-family="JetBrains Mono" font-size="9" fill="#8a93a6" text-anchor="end">
      <text x="0" y="55">$0</text>
      <text x="0" y="35">$5M</text>
      <text x="0" y="15">$25M</text>
    </g>

    <!-- Curve fill -->
    <path d="M 10,50 L 230,50 L 340,48 L 560,40 L 780,28 L 1000,12 L 1110,2 L 1110,50 Z" fill="url(#revGrad)"/>

    <!-- Curve line -->
    <path d="M 10,50 L 230,50 L 340,48 L 560,40 L 780,28 L 1000,12 L 1110,2"
          fill="none" stroke="#5BC0EB" stroke-width="2"/>

    <!-- Year markers -->
    <g>
      <circle cx="120" cy="50" r="4" fill="#0a0b0d" stroke="#5BC0EB" stroke-width="1.5"/>
      <text x="120" y="70" font-family="JetBrains Mono" font-size="9" fill="#8a93a6" text-anchor="middle">$0</text>
      <text x="120" y="82" font-family="JetBrains Mono" font-size="8" fill="#8a93a6" text-anchor="middle">2026</text>

      <circle cx="340" cy="48" r="4" fill="#0a0b0d" stroke="#5BC0EB" stroke-width="1.5"/>
      <text x="340" y="70" font-family="JetBrains Mono" font-size="9" fill="#5BC0EB" text-anchor="middle">$1.5M</text>
      <text x="340" y="82" font-family="JetBrains Mono" font-size="8" fill="#8a93a6" text-anchor="middle">2027</text>

      <circle cx="560" cy="40" r="4" fill="#0a0b0d" stroke="#5BC0EB" stroke-width="1.5"/>
      <text x="560" y="70" font-family="JetBrains Mono" font-size="9" fill="#5BC0EB" text-anchor="middle">$5M</text>
      <text x="560" y="82" font-family="JetBrains Mono" font-size="8" fill="#8a93a6" text-anchor="middle">2028</text>

      <circle cx="780" cy="28" r="4" fill="#0a0b0d" stroke="#5BC0EB" stroke-width="1.5"/>
      <text x="780" y="70" font-family="JetBrains Mono" font-size="9" fill="#5BC0EB" text-anchor="middle">$12M</text>
      <text x="780" y="82" font-family="JetBrains Mono" font-size="8" fill="#8a93a6" text-anchor="middle">2029</text>

      <circle cx="1000" cy="12" r="6" fill="#5BC0EB" stroke="#fff" stroke-width="1.5"/>
      <text x="1000" y="70" font-family="JetBrains Mono" font-size="11" fill="#5BC0EB" text-anchor="middle" font-weight="600">$25M</text>
      <text x="1000" y="82" font-family="JetBrains Mono" font-size="8" fill="#8a93a6" text-anchor="middle">2030</text>
    </g>
  </g>

  <!-- Legend -->
  <g transform="translate(60, 600)">
    <text font-family="JetBrains Mono" font-size="9" fill="#8a93a6" letter-spacing="1.5">★ — KEY MILESTONE</text>
    <text x="200" font-family="JetBrains Mono" font-size="9" fill="#E8A33D">PATENT</text>
    <text x="280" font-family="JetBrains Mono" font-size="9" fill="#5BC0EB">PRODUCTION</text>
    <text x="380" font-family="JetBrains Mono" font-size="9" fill="#3FB984">SALES</text>
    <text x="450" font-family="JetBrains Mono" font-size="9" fill="#82d3f3">FUNDRAISE</text>
    <text x="1110" font-family="JetBrains Mono" font-size="9" fill="#8a93a6" text-anchor="end">2026-05-09 · INERTUM</text>
  </g>
</svg>
